#tb 0: 1/1000
0,          0,          0,        0,      768, c73d611490a5ddec6c690589deaf5e86
0,         33,         33,        0,      768, 5d8eaeb222aa64abda59ce7b09b2f6d9
0,         66,         66,        0,      768, 34321856b8dd5bbb9b63db04d3532289
0,        100,        100,        0,      768, 947337d2fec8a09242f60e31e99f4065
0,        133,        133,        0,      768, bb7d92f6fc055f0cf0e97bd2be56cc9e
0,        166,        166,        0,      768, 5d343c82bcdd0e9d08581043cddfd0ca
0,        200,        200,        0,      768, 612ded93207712e4916d584cc4a7b87c
0,        233,        233,        0,      768, 6ba5e0d19893e1b96f5ca86e0bfd7e18
0,        266,        266,        0,      768, 336572e1dcb110b1eb87bea81e0752f4
0,        300,        300,        0,      768, 705f73d0a39afce59ea571e68bfe25df
